<svg width="1134" height="567" viewBox="0 0 1134 567" fill="none" xmlns="http://www.w3.org/2000/svg">
<ellipse cx="445.5" cy="511" rx="22.5" ry="22" fill="#6EACF3"/>
<ellipse cx="472.5" cy="527" rx="22.5" ry="22" fill="#6EACF3"/>
<ellipse cx="487.5" cy="540" rx="22.5" ry="22" fill="#6EACF3"/>
<ellipse cx="423.5" cy="536.5" rx="26.5" ry="25.5" fill="#6EACF3"/>
<rect x="423" y="533" width="59" height="29" fill="#71AEF5"/>
<ellipse cx="1065.5" cy="364" rx="22.5" ry="22" fill="#6EACF3"/>
<ellipse cx="1092.5" cy="380" rx="22.5" ry="22" fill="#6EACF3"/>
<ellipse cx="1107.5" cy="393" rx="22.5" ry="22" fill="#6EACF3"/>
<ellipse cx="1043.5" cy="389.5" rx="26.5" ry="25.5" fill="#6EACF3"/>
<rect x="1043" y="386" width="59" height="29" fill="#71AEF5"/>
<ellipse cx="790" cy="398" rx="14" ry="12" fill="#6EACF3"/>
<ellipse cx="807" cy="406.5" rx="14" ry="11.5" fill="#6EACF3"/>
<ellipse cx="816.5" cy="413" rx="14.5" ry="12" fill="#6EACF3"/>
<ellipse cx="776" cy="411.5" rx="17" ry="13.5" fill="#6EACF3"/>
<rect x="776" y="410" width="37" height="15" fill="#71AEF5"/>
<ellipse cx="79" cy="147" rx="11" ry="12" fill="#6EACF3"/>
<circle cx="92.5" cy="155.5" r="11.5" fill="#6EACF3"/>
<ellipse cx="100" cy="162" rx="11" ry="12" fill="#6EACF3"/>
<ellipse cx="68" cy="160.5" rx="13" ry="13.5" fill="#6EACF3"/>
<rect x="68" y="159" width="29" height="15" fill="#71AEF5"/>
<ellipse cx="257.5" cy="285" rx="22.5" ry="22" fill="#6EACF3"/>
<ellipse cx="284.5" cy="301" rx="22.5" ry="22" fill="#6EACF3"/>
<ellipse cx="299.5" cy="314" rx="22.5" ry="22" fill="#6EACF3"/>
<ellipse cx="235.5" cy="310.5" rx="26.5" ry="25.5" fill="#6EACF3"/>
<rect x="235" y="307" width="59" height="29" fill="#71AEF5"/>
<ellipse cx="23" cy="353" rx="14" ry="17" fill="#6EACF3"/>
<ellipse cx="40" cy="365" rx="14" ry="17" fill="#6EACF3"/>
<ellipse cx="49.5" cy="375" rx="14.5" ry="17" fill="#6EACF3"/>
<ellipse cx="9" cy="372.5" rx="17" ry="19.5" fill="#6EACF3"/>
<rect x="9" y="370" width="37" height="22" fill="#71AEF5"/>
<ellipse cx="863.5" cy="247" rx="22.5" ry="22" fill="#6EACF3"/>
<ellipse cx="890.5" cy="263" rx="22.5" ry="22" fill="#6EACF3"/>
<ellipse cx="905.5" cy="276" rx="22.5" ry="22" fill="#6EACF3"/>
<ellipse cx="841.5" cy="272.5" rx="26.5" ry="25.5" fill="#6EACF3"/>
<rect x="841" y="269" width="59" height="29" fill="#71AEF5"/>
<ellipse cx="863.5" cy="247" rx="22.5" ry="22" fill="#6EACF3"/>
<ellipse cx="890.5" cy="263" rx="22.5" ry="22" fill="#6EACF3"/>
<ellipse cx="905.5" cy="276" rx="22.5" ry="22" fill="#6EACF3"/>
<ellipse cx="841.5" cy="272.5" rx="26.5" ry="25.5" fill="#6EACF3"/>
<rect x="841" y="269" width="59" height="29" fill="#71AEF5"/>
<ellipse cx="1011" cy="105" rx="13" ry="12" fill="#6EACF3"/>
<ellipse cx="1026" cy="113.5" rx="13" ry="11.5" fill="#6EACF3"/>
<ellipse cx="1035" cy="120" rx="13" ry="12" fill="#6EACF3"/>
<ellipse cx="998" cy="118.5" rx="15" ry="13.5" fill="#6EACF3"/>
<rect x="998" y="117" width="34" height="15" fill="#71AEF5"/>
<ellipse cx="242.5" cy="-7" rx="22.5" ry="22" fill="#6EACF3"/>
<ellipse cx="257.5" cy="6" rx="22.5" ry="22" fill="#6EACF3"/>
<ellipse cx="193.5" cy="2.5" rx="26.5" ry="25.5" fill="#6EACF3"/>
<rect x="193" y="-1" width="59" height="29" fill="#71AEF5"/>
<ellipse cx="1122.5" cy="18" rx="22.5" ry="22" fill="#6EACF3"/>
<ellipse cx="1149.5" cy="34" rx="22.5" ry="22" fill="#6EACF3"/>
<ellipse cx="1100.5" cy="43.5" rx="26.5" ry="25.5" fill="#6EACF3"/>
<rect x="1100" y="40" width="59" height="29" fill="#71AEF5"/>
</svg>
