<svg width="320" height="568" viewBox="0 0 320 568" fill="none" xmlns="http://www.w3.org/2000/svg">
<g clip-path="url(#clip0)">
<rect width="320" height="568" fill="url(#paint0_linear)"/>
<path d="M117.101 535.933C113.173 547.805 119.45 529.042 140.896 474.557C148.539 460.995 153.279 453.819 164.691 443.869C170.934 439.6 174.446 437.986 180.769 438.289C186.874 437.213 191.42 439.158 200.063 443.869C215.266 453.688 220.143 462.435 228.038 478.741C251.737 533.983 258.747 546.11 261.159 535.933V568.481H117.101V535.933Z" fill="#1B6ECD"/>
<path d="M0 462.08C16.7385 432.515 27.6462 427.164 47.7311 422.127C56.6363 415.833 87.4629 440.399 147.081 501.061C158.266 520.927 173.894 538.085 193.613 553.134C247.88 529.391 275.76 509.98 320 462.08V568H0V462.08Z" fill="#1F77DC"/>
<path d="M50.1341 417.369H51.5922L46.4887 403L41.4217 417.369H42.8434L40 425.991H45.0452V431.738H47.9323V425.991H53.0504L50.1341 417.369Z" fill="#0C57AB"/>
<path d="M295.648 509.5H297.324L291.458 493L285.634 509.5H287.268L284 519.4H289.799V526H293.117V519.4H299L295.648 509.5Z" fill="#0C57AB"/>
<ellipse cx="273.646" cy="346" rx="14" ry="12" fill="#6EACF3"/>
<ellipse cx="290.646" cy="351.5" rx="14" ry="11.5" fill="#6EACF3"/>
<ellipse cx="296.146" cy="358" rx="14.5" ry="12" fill="#6EACF3"/>
<ellipse cx="259.646" cy="356.5" rx="17" ry="13.5" fill="#6EACF3"/>
<rect x="259.646" y="355" width="37" height="15" fill="#71AEF5"/>
<ellipse cx="16.4404" cy="185.5" rx="4" ry="4.5" fill="#6EACF3"/>
<circle cx="20.9404" cy="188.5" r="4.5" fill="#6EACF3"/>
<ellipse cx="22.4404" cy="191.5" rx="4" ry="4.5" fill="#6EACF3"/>
<ellipse cx="12.9404" cy="191" rx="4.5" ry="5" fill="#6EACF3"/>
<rect x="12.4404" y="190" width="10" height="6" fill="#71AEF5"/>
<ellipse cx="217.5" cy="185.5" rx="3.5" ry="4.5" fill="#6EACF3"/>
<ellipse cx="221.5" cy="187.5" rx="3.5" ry="4.5" fill="#6EACF3"/>
<ellipse cx="222.5" cy="190.5" rx="3.5" ry="4.5" fill="#6EACF3"/>
<ellipse cx="214" cy="189.5" rx="4" ry="5.5" fill="#6EACF3"/>
<rect x="214" y="189" width="9" height="6" fill="#71AEF5"/>
<ellipse cx="143" cy="208" rx="14" ry="17" fill="#6EACF3"/>
<ellipse cx="160" cy="218" rx="14" ry="17" fill="#6EACF3"/>
<ellipse cx="165.5" cy="228" rx="14.5" ry="17" fill="#6EACF3"/>
<ellipse cx="129" cy="225.5" rx="17" ry="19.5" fill="#6EACF3"/>
<rect x="129" y="223" width="37" height="22" fill="#71AEF5"/>
<ellipse cx="109.361" cy="97" rx="6.5" ry="6" fill="#6EACF3"/>
<ellipse cx="117.361" cy="100.5" rx="6.5" ry="5.5" fill="#6EACF3"/>
<ellipse cx="120.361" cy="104" rx="6.5" ry="6" fill="#6EACF3"/>
<ellipse cx="102.861" cy="103" rx="8" ry="7" fill="#6EACF3"/>
<rect x="102.861" y="102" width="17" height="8" fill="#71AEF5"/>
<ellipse cx="287.5" cy="160" rx="7.5" ry="10" fill="#6EACF3"/>
<ellipse cx="297.157" cy="164.5" rx="7.5" ry="9.5" fill="#6EACF3"/>
<ellipse cx="302.157" cy="170" rx="7.5" ry="10" fill="#6EACF3"/>
<ellipse cx="280.657" cy="169" rx="9" ry="11" fill="#6EACF3"/>
<rect x="280.657" y="168" width="20" height="12" fill="#71AEF5"/>
<ellipse cx="128.322" cy="37.5" rx="7.5" ry="9.5" fill="#6EACF3"/>
<ellipse cx="135.986" cy="40.5" rx="7.5" ry="9.5" fill="#6EACF3"/>
<ellipse cx="139.322" cy="46.5" rx="7.5" ry="9.5" fill="#6EACF3"/>
<ellipse cx="119.486" cy="45" rx="9" ry="11" fill="#6EACF3"/>
<rect x="119.486" y="43" width="20" height="13" fill="#71AEF5"/>
<g clip-path="url(#clip1)">
<ellipse cx="294.261" cy="63.834" rx="7.5" ry="10" fill="#6EACF3"/>
<ellipse cx="300.5" cy="70" rx="7.5" ry="10" fill="#6EACF3"/>
<ellipse cx="308.261" cy="76.834" rx="7.5" ry="10" fill="#6EACF3"/>
<ellipse cx="286.761" cy="75.334" rx="9" ry="11.5" fill="#6EACF3"/>
<rect x="286.761" y="73.834" width="20" height="13" fill="#71AEF5"/>
</g>
<ellipse cx="305.556" cy="298.362" rx="2.5" ry="4" fill="#6EACF3"/>
<ellipse cx="308.556" cy="300.362" rx="2.5" ry="4" fill="#6EACF3"/>
<ellipse cx="310.556" cy="303.362" rx="2.5" ry="4" fill="#6EACF3"/>
<ellipse cx="302.556" cy="302.362" rx="3.5" ry="5" fill="#6EACF3"/>
<rect x="303.056" y="302.362" width="7" height="5" fill="#71AEF5"/>
<ellipse cx="-1.5" cy="30" rx="22.5" ry="22" fill="#6EACF3"/>
<ellipse cx="25.5" cy="41" rx="22.5" ry="22" fill="#6EACF3"/>
<ellipse cx="37.5" cy="54" rx="22.5" ry="22" fill="#6EACF3"/>
<ellipse cx="-23.5" cy="50.5" rx="26.5" ry="25.5" fill="#6EACF3"/>
<rect x="-24" y="47" width="59" height="29" fill="#71AEF5"/>
<ellipse cx="254.5" cy="244" rx="9.5" ry="12" fill="#6EACF3"/>
<ellipse cx="266.5" cy="249" rx="9.5" ry="12" fill="#6EACF3"/>
<ellipse cx="273" cy="256" rx="10" ry="12" fill="#6EACF3"/>
<ellipse cx="245" cy="254" rx="12" ry="14" fill="#6EACF3"/>
<rect x="245" y="252" width="26" height="16" fill="#71AEF5"/>
<ellipse cx="35.5" cy="229" rx="8.5" ry="9" fill="#6EACF3"/>
<ellipse cx="45.5" cy="236" rx="8.5" ry="9" fill="#6EACF3"/>
<ellipse cx="51" cy="241" rx="8" ry="9" fill="#6EACF3"/>
<ellipse cx="27.5" cy="239.5" rx="9.5" ry="10.5" fill="#6EACF3"/>
<rect x="27" y="238" width="22" height="12" fill="#71AEF5"/>
<ellipse cx="28.5366" cy="110" rx="7.5" ry="10" fill="#6EACF3"/>
<ellipse cx="37.5366" cy="116.5" rx="7.5" ry="9.5" fill="#6EACF3"/>
<ellipse cx="42.5366" cy="122" rx="7.5" ry="10" fill="#6EACF3"/>
<ellipse cx="21.0366" cy="121" rx="9" ry="11" fill="#6EACF3"/>
<rect x="21.0366" y="120" width="20" height="12" fill="#71AEF5"/>
<ellipse cx="232.163" cy="24.5" rx="7.5" ry="9.5" fill="#6EACF3"/>
<ellipse cx="239.5" cy="30.5" rx="7.5" ry="9.5" fill="#6EACF3"/>
<ellipse cx="244.5" cy="37.5" rx="7.5" ry="9.5" fill="#6EACF3"/>
<ellipse cx="224.663" cy="36" rx="9" ry="11" fill="#6EACF3"/>
<rect x="224.663" y="34" width="20" height="13" fill="#71AEF5"/>
<g clip-path="url(#clip2)">
<ellipse cx="311.261" cy="9.83398" rx="7.5" ry="10" fill="#6EACF3"/>
<ellipse cx="320.261" cy="16.834" rx="7.5" ry="10" fill="#6EACF3"/>
<ellipse cx="325.261" cy="22.834" rx="7.5" ry="10" fill="#6EACF3"/>
<ellipse cx="303.761" cy="21.334" rx="9" ry="11.5" fill="#6EACF3"/>
<rect x="303.761" y="19.834" width="20" height="13" fill="#71AEF5"/>
</g>
<ellipse cx="75.04" cy="272.5" rx="7.5" ry="11.5" fill="#6EACF3"/>
<ellipse cx="84.04" cy="280.5" rx="7.5" ry="11.5" fill="#6EACF3"/>
<ellipse cx="89.04" cy="287.5" rx="7.5" ry="11.5" fill="#6EACF3"/>
<ellipse cx="67.54" cy="285.5" rx="9" ry="13.5" fill="#6EACF3"/>
<rect x="67.54" y="284" width="20" height="15" fill="#71AEF5"/>
<ellipse cx="209" cy="118" rx="11" ry="12" fill="#6EACF3"/>
<circle cx="222.5" cy="123.5" r="11.5" fill="#6EACF3"/>
<ellipse cx="227" cy="130" rx="11" ry="12" fill="#6EACF3"/>
<ellipse cx="198" cy="128.5" rx="13" ry="13.5" fill="#6EACF3"/>
<rect x="198" y="127" width="29" height="15" fill="#71AEF5"/>
<ellipse cx="69" cy="166" rx="8" ry="9" fill="#6EACF3"/>
<ellipse cx="78.5" cy="171" rx="7.5" ry="9" fill="#6EACF3"/>
<ellipse cx="83" cy="176" rx="8" ry="9" fill="#6EACF3"/>
<ellipse cx="61.5" cy="175" rx="9.5" ry="10" fill="#6EACF3"/>
<rect x="61" y="174" width="21" height="11" fill="#71AEF5"/>
</g>
<defs>
<linearGradient id="paint0_linear" x1="160" y1="0" x2="160" y2="568" gradientUnits="userSpaceOnUse">
<stop stop-color="#1763D1"/>
<stop offset="1" stop-color="#76B4F6"/>
</linearGradient>
<clipPath id="clip0">
<rect width="320" height="568" fill="white"/>
</clipPath>
<clipPath id="clip1">
<rect width="43" height="37" fill="white" transform="translate(273 54)"/>
</clipPath>
<clipPath id="clip2">
<rect width="58" height="40" fill="white" transform="translate(290)"/>
</clipPath>
</defs>
</svg>
