<svg width="1134" height="276" viewBox="0 0 1134 276" fill="none" xmlns="http://www.w3.org/2000/svg">
<path d="M408.117 214.886C393.425 237.177 416.906 201.946 497.129 99.6413C525.72 74.1775 543.449 60.7032 586.141 42.0191C609.493 34.0037 622.632 30.9739 646.284 31.5424C669.122 29.5219 686.127 33.1752 718.456 42.0191C775.328 60.4577 793.571 76.8804 823.105 107.499C911.757 211.224 937.98 233.995 947 214.886V276H408.117V214.886Z" fill="#1B6ECD"/>
<path d="M-5 76.899C54.8923 21.3256 93.9215 11.267 165.788 1.79951C197.652 -10.0317 307.953 36.1449 521.275 150.174C561.296 187.517 617.215 219.767 687.773 248.056C881.946 203.425 981.703 166.938 1140 76.899V276H-5V76.899Z" fill="#1F77DC"/>
</svg>
